<svg id="Flat" height="512" viewBox="0 0 512 512" width="512" xmlns="http://www.w3.org/2000/svg"><path d="m181.04 296.8a79.994 79.994 0 0 0 -69.04 79.2v80a32 32 0 0 0 32 32h224a32 32 0 0 0 32-32v-80a79.994 79.994 0 0 0 -69.04-79.2z" fill="#58646f"/><path d="m288 304v24a32.514 32.514 0 0 1 -.71 6.74 32.009 32.009 0 0 1 -62.58 0 32.514 32.514 0 0 1 -.71-6.74v-24z" fill="#f5be98"/><rect fill="#eb9180" height="48" rx="24" width="272" x="120" y="168"/><path d="m288 304v24a32.514 32.514 0 0 1 -.71 6.74 103.425 103.425 0 0 1 -16.17 1.26h-30.24a103.425 103.425 0 0 1 -16.17-1.26 32.514 32.514 0 0 1 -.71-6.74v-24z" fill="#eb9180"/><path d="m360 128v103.122a88.876 88.876 0 0 1 -21.4 57.841 88.878 88.878 0 0 1 -67.478 31.037h-30.244a88.878 88.878 0 0 1 -67.478-31.037 88.876 88.876 0 0 1 -21.4-57.841v-103.122z" fill="#f5be98"/><path d="m144 104a80 80 0 0 1 80-80h64a80 80 0 0 1 80 80z" fill="#35505d"/><path d="m192.357 104a8 8 0 0 1 -7.981-8.677c3.319-38.1 28.29-69.261 61.787-77.311a8.029 8.029 0 0 1 9.893 6.881v.007a8.016 8.016 0 0 1 -6.11 8.668c-12.677 3.077-24.278 10.583-33.205 21.609a76.74 76.74 0 0 0 -16.424 41.583 7.973 7.973 0 0 1 -7.96 7.24z" fill="#58646f"/><path d="m319.643 104a7.973 7.973 0 0 1 -7.96-7.24 76.74 76.74 0 0 0 -16.425-41.579c-8.927-11.026-20.528-18.532-33.2-21.609a8.016 8.016 0 0 1 -6.11-8.668v-.011a8.029 8.029 0 0 1 9.893-6.881c33.5 8.05 58.468 39.207 61.787 77.311a8 8 0 0 1 -7.985 8.677z" fill="#58646f"/><path d="m152 136h208v96h-208z" fill="#35505d"/><path d="m256 288c-28.615 0-38.738-19.588-39.155-20.422l14.31-7.156-.053-.1c.257.476 6.51 11.682 24.9 11.682s24.641-11.206 24.9-11.682l-.053.1 14.31 7.156c-.421.834-10.544 20.422-39.159 20.422z" fill="#a3783b"/><path d="m352 440h-48a8 8 0 0 1 -8-8 8 8 0 0 1 8-8h40v-40a8 8 0 0 1 8-8 8 8 0 0 1 8 8v48a8 8 0 0 1 -8 8z" fill="#35505d"/><path d="m208 440h-48a8 8 0 0 1 -8-8v-48a8 8 0 0 1 8-8 8 8 0 0 1 8 8v40h40a8 8 0 0 1 8 8 8 8 0 0 1 -8 8z" fill="#35505d"/><rect fill="#58646f" height="80" rx="8" width="16" x="248" y="24"/><path d="m232.268 184.551a24.864 24.864 0 1 1 -46.893-16.551z" fill="#ef5349"/><path d="m279.732 184.551a24.864 24.864 0 0 0 46.893-16.551z" fill="#ef5349"/><path d="m136 104h240v32h-240z" fill="#58646f"/><path d="m216 432h8l12.485-12.485a12 12 0 0 1 8.486-3.515h19.029a8 8 0 0 1 8 8v8h24a8 8 0 0 1 8 8v40a8 8 0 0 1 -8 8h-80z" fill="#f5be98"/></svg>